# xmcd
#
# Track frame offsets:
#	150
#	19690
#	39255
#	55425
#	75015
#	93390
#	113875
#	133612
#	153445
#	173037
#
# Disc length: 2561 seconds
#
# Revision: 5
# Processed by: cddbd v1.5.2PL0 Copyright (c) Steve Scherf et al.
# Submitted via: EasyCDDAExtractor 15.3.0.1
#
DISCID=6d09ff0a
DTITLE=Tonny Tun Tun - Caminando
DYEAR=1999
DGENRE=Latin
TTITLE0=Caminando
TTITLE1=Dudo Mucho
TTITLE2=Pegatela Al Cuerpo
TTITLE3=Cuando Acaba El Placer
TTITLE4=Cuando La Brisa llega
TTITLE5=Vuelve A Mi
TTITLE6=Solo Yo Te Digo
TTITLE7=La Fiebre
TTITLE8=Esta Soledad
TTITLE9=Desde Que Te Vi
EXTD=YEAR: 1999
EXTT0=
EXTT1=
EXTT2=
EXTT3=
EXTT4=
EXTT5=
EXTT6=
EXTT7=
EXTT8=
EXTT9=
PLAYORDER=
